<svg className="pencil" style="backgroundColor: 'transparent'" height="35" viewBox="0 0 512 512" width="35" xmlns="http://www.w3.org/2000/svg" data-name="Layer 1">
	<g id="_Path_" data-name=" Path ">
		<path d="m74.44 373.02-14.79 50.27 27.71 27.71 1.35 1.35 50.27-14.79z" fill="#e1b7a3" />
		<path d="m88.71 452.35-41.18 12.12 12.12-41.18 27.71 27.71z" fill="#b0b5ca" />
	</g>
	<path d="m80.289 295.863h340.012v25.173h-340.012z" fill="#ef96a9" transform="matrix(.707 -.707 .707 .707 -144.797 267.32)" />
	<path d="m56.919 264.616h340.012v40.927h-340.012z" fill="#eb7288" transform="matrix(.707 -.707 .707 .707 -135.116 243.951)" />
	<path d="m33.549 249.123h340.012v25.173h-340.012z" fill="#ef96a9" transform="matrix(.707 -.707 .707 .707 -125.436 220.581)" />
	<path d="m357.245 77.605-48.727 48.727 77.17 77.129 48.781-48.965z" fill="#d4e1f4" />
	<path d="m464.47 112.07-36.29 36.3h-.01l-64.53-64.54 36.29-36.3z" fill="#c0c5d9" />
	<path d="m308.429 97.825h68.907v28.284h-68.907z" fill="#bccee2" transform="matrix(.707 -.707 .707 .707 21.255 275.249)" />
	<path d="m366.121 61.538h51.329v28.284h-51.329z" fill="#a9afc4" transform="matrix(.707 -.707 .707 .707 61.268 299.246)" />
	<g fill="#284268">
		<path d="m47.532 470.468a5.961 5.961 0 0 0 1.693-.244l91.446-26.9 2.464-1.443c.027-.026.059-.044.086-.07l236.186-236.192 2.061 2.06a6 6 0 0 0 8.485 0l48.766-48.766a6 6 0 0 0 0-8.485l-2.06-2.061 32.052-32.052a6 6 0 0 0 0-8.485l-64.541-64.541a6 6 0 0 0 -8.485 0l-32.052 32.052-2.061-2.06a6 6 0 0 0 -8.485 0l-48.766 48.766a6 6 0 0 0 0 8.485l2.06 2.061-236.187 236.186c-.027.027-.044.059-.069.086l-1.444 2.464-26.9 91.446a6 6 0 0 0 5.756 7.693zm91.446-41.39-9.316-9.317 231.944-231.944 9.316 9.317zm-17.8-17.8-20.452-20.452 231.942-231.947 20.453 20.453zm278.749-355.261 56.056 56.056-27.809 27.809-56.056-56.056zm-42.6 29.992 68.661 68.661-40.278 40.281-68.661-68.661zm-42.464 55.069 9.317 9.316-231.941 231.944-9.317-9.316zm-237.523 243.333 50.249 50.249-37.152 10.931-24.027-24.028zm-14.789 50.264 14.774 14.774-20.932 6.158z" />
		<path d="m333.599 110.214h27.311v12h-27.311z" transform="matrix(.707 -.707 .707 .707 19.533 279.584)" />
		<path d="m349.986 126.601h27.311v12h-27.311z" transform="matrix(.707 -.707 .707 .707 12.745 295.971)" />
		<path d="m365.743 142.359h27.311v12h-27.311z" transform="matrix(.707 -.707 .707 .707 6.218 311.729)" />
		<path d="m382.131 158.746h27.311v12h-27.311z" transform="matrix(.707 -.707 .707 .707 -.57 328.116)" />
	</g>
</svg>
