<svg class='note-icon' id="Filled" height="512" viewBox="0 0 512 512" width="512" xmlns="http://www.w3.org/2000/svg"><circle cx="256" cy="256" fill="#6ed2f0" r="88"/><circle cx="256" cy="256" fill="#5098ad" r="56"/><path d="m488 248h-40v-144a40.045 40.045 0 0 0 -40-40h-144v-40a8 8 0 0 0 -16 0v40h-144a40.045 40.045 0 0 0 -40 40v144h-40a8 8 0 0 0 0 16h40v144a40.045 40.045 0 0 0 40 40h144v40a8 8 0 0 0 16 0v-40h144a40.045 40.045 0 0 0 40-40v-144h40a8 8 0 0 0 0-16zm-56 160a24.027 24.027 0 0 1 -24 24h-144v-40a8 8 0 0 0 -16 0v40h-144a24.027 24.027 0 0 1 -24-24v-144h40a8 8 0 0 0 0-16h-40v-144a24.027 24.027 0 0 1 24-24h144v40a8 8 0 0 0 16 0v-40h144a24.027 24.027 0 0 1 24 24v144h-40a8 8 0 0 0 0 16h40z"/><path d="m256 160a96 96 0 1 0 96 96 96.108 96.108 0 0 0 -96-96zm0 176a80 80 0 1 1 80-80 80.091 80.091 0 0 1 -80 80z"/><path d="m256 192a64 64 0 1 0 64 64 64.072 64.072 0 0 0 -64-64zm0 112a48 48 0 1 1 48-48 48.055 48.055 0 0 1 -48 48z"/><path d="m24 112a8 8 0 0 0 8-8v-72h72a8 8 0 0 0 0-16h-80a8 8 0 0 0 -8 8v80a8 8 0 0 0 8 8z"/><path d="m488 16h-80a8 8 0 0 0 0 16h72v72a8 8 0 0 0 16 0v-80a8 8 0 0 0 -8-8z"/><path d="m488 400a8 8 0 0 0 -8 8v72h-72a8 8 0 0 0 0 16h80a8 8 0 0 0 8-8v-80a8 8 0 0 0 -8-8z"/><path d="m24 496h80a8 8 0 0 0 0-16h-72v-72a8 8 0 0 0 -16 0v80a8 8 0 0 0 8 8z"/></svg>